<svg xmlns="http://www.w3.org/2000/svg" xmlns:xlink="http://www.w3.org/1999/xlink" viewBox="0 0 500 500" data-v-4ca2c3fc="" fill="none">

<defs data-v-4ca2c3fc="">

<linearGradient id="linear-gradient" x1="339.6" y1="180.99" x2="389.22" y2="180.99" gradientUnits="userSpaceOnUse" data-v-4ca2c3fc="">
    <stop offset="0" stop-color="#e0bd00" data-v-4ca2c3fc=""/>
    <stop offset="0.39" stop-color="#ffe769" data-v-4ca2c3fc=""/>
    <stop offset="1" stop-color="#ffd700" data-v-4ca2c3fc=""/>
</linearGradient>

<linearGradient id="linear-gradient-2" x1="112.72" y1="326.55" x2="184.35" y2="326.55" xlink:href="#linear-gradient" data-v-4ca2c3fc=""/>

<clipPath id="clip-path" data-v-4ca2c3fc="">

<path fill="url(#linear-gradient)" d="M341.85,208.09s17.25-19.23,47.37-7.54c0,0-22.87-36.91-49.5-46.65,0,0-.87,49.51,2.13,54.19" data-v-4ca2c3fc=""/></clipPath><linearGradient id="linear-gradient-4" x1="-592.42" y1="481.78" x2="-591.42" y2="481.78" gradientTransform="matrix(13.74, 0, 0, -13.74, 8484.41, 6799.76)" xlink:href="#linear-gradient" data-v-4ca2c3fc=""/><clipPath id="clip-path-2" data-v-4ca2c3fc=""><rect fill="none" width="500" height="500" data-v-4ca2c3fc=""/></clipPath><clipPath id="clip-path-3" data-v-4ca2c3fc="">
<path fill="url(#linear-gradient-2)"
d="M112.72,341.07s44.93,15.38,71.63,5.67c0,0-37.53-41.72-43.3-43.6,0,0,2.4,27.51-28.33,37.93" data-v-4ca2c3fc=""/>
</clipPath>

<linearGradient id="linear-gradient-6" x1="-655.97" y1="538.63" x2="-654.97" y2="538.63" gradientTransform="matrix(-5, 12.9, 13.61, 6.94, -10458.49, 5046.1)" xlink:href="#linear-gradient" data-v-4ca2c3fc=""/><linearGradient id="linear-gradient-7" x1="190.43" y1="255.35" x2="280.56" y2="255.35" xlink:href="#linear-gradient" data-v-4ca2c3fc=""/></defs><title data-v-4ca2c3fc="">Sperm King</title>





<path d="M362.17,121c-7.41,13.59-18.47,5.34-18.47,5.34s-5.58-4.21-10.53.19l4.06,301.21c0,.06,0,2.89-5.25,3.72-5.22-.83-5.25-3.65-5.25-3.71l4.06-301.22c-5-4.4-10.53-.19-10.53-.19s-11.06,8.25-18.47-5.35-1.12-30.84,4.5-37.21c5.45-6.18,9.23-22.12,9.46-23.11-.69,5-5.9,21-8.61,24.61s-4.79,9.75-4.79,20,8.91,20.71,15.66,14.71,12.88-.93,12.88-.93L332,37.83,333.06,119s6.14-5.07,12.89.93,15.65-4.5,15.65-14.71-2.06-16.32-4.79-20-7.92-19.59-8.6-24.61c.23,1,4,16.93,9.46,23.11C363.29,90.11,369.56,107.36,362.17,121Z" fill="#ffd700" color="#ffd700" stroke="#000000" stroke-width="1px"/>
<polyline points="331.98 129.3 331.98 133.61 327.48 133.61 327.48 129.3" fill="#000000"/>
<path d="M327.05,130.57s-7.64-1.71-5.57-10.46a25.67,25.67,0,0,0-2.68-19.31s3.61,11,1.69,18-.7,12.29,6.56,13.88" fill="#000000"/>

<polyline points="332.17 129.35 332.19 133.66 336.69 133.64 336.67 129.33" fill="#000000"/>

<path d="M337.1,130.59s7.64-1.74,5.53-10.48a25.62,25.62,0,0,1,2.58-19.32s-3.55,11-1.6,18,.76,12.28-6.5,13.91" fill="#000000"/>

<path stroke-width="5px" stroke="#000000" fill="#FFFFFF"  d="M200.93,231.5s-16,2.5-21.5,7.87c0,0-28.87-25.25-55.75,19.13,0,0-41.35,4.33-26.84,47.86a2.11,2.11,0,0,1,.22.64c-.38,11.62,6.5,39.12,86.62,39.62,0,0,17.63-8,7-20.37s-20.25-9.69-22.12,3.31c0,0-17.69-18.38-32.07-24.13,0,0,4-1.12,6.07-7.12,0,0,21.56,9.56,37.68-3.81-.28.56,1.21,10.52,12.1,17,.78.47,1.61.91,2.5,1.34,10.12,4.88,23.25,41.06,18.59,61.66C209.89,390.17,186.29,442,125.91,415c0,0-30.68-17.22-8.73-40,0,0,21.46-19.15,43.23-18.67,0,0-29.7-.58-50.68,17.22,0,0-20.85,14.3-3.87,40.62,16.82,26.08,70.8,28.63,84.05,26.7s56.29-4.07,80.56-49.53c17.57-32.89,33.59-68.22,30.71-104.22,0,0,2.63-3.62,2.88-7,0,0,24.87,13.38,44.12-21.37,0,0,21.75,2.62,29.88-23,0,0,23.87-43-38.13-81.63-8.69-5.42-21.37-3.62-19.37,9.63s4,18.5,20.25,11c0,0-2.25,27.62,3.5,35.87,0,0-14.13-.87-15.38,3.88,0,0-24.25-9.88-43,13.75,0,0-3.62-5.5-18-7.63,0,0-22.87,18.38-67,10.88" />


<path stroke="#000000" stroke-width="2px" d="M341.85,208.09s17.25-19.23,47.37-7.54c0,0-22.87-36.91-49.5-46.65,0,0-.87,49.51,2.13,54.19" data-v-4ca2c3fc=""/>
<g class="cls-9" data-v-4ca2c3fc="">
<rect fill="url(#linear-gradient-4)" x="330.29" y="146.23" width="67.49" height="69.52" transform="translate(-41.73 155.85) rotate(-22.89)" data-v-4ca2c3fc=""/></g>


<g >
    <path fill="#e0bd00" stroke="#000000" stroke-width="1px" d="M389.22,200.55s-6.12,4.35-7.74,4.13c0,0-1.27-5.17-2-7,0,0,7.65,1.7,9.71,2.85" data-v-4ca2c3fc=""/></g>

<path stroke="#000000" stroke-width="2px" d="M112.72,341.07s44.93,15.38,71.63,5.67c0,0-37.53-41.72-43.3-43.6,0,0,2.4,27.51-28.33,37.93" data-v-4ca2c3fc=""/>
<g class="cls-13" data-v-4ca2c3fc="">

<polygon fill="url(#linear-gradient-6)" points="201.61 311.94 172.52 386.96 95.47 347.64 124.55 272.63 201.61 311.94" data-v-4ca2c3fc=""/></g>

<path fill="#e0bd00" stroke="#000000" stroke-width="1px" d="M141.05,303.14s-2.68,2.14-2.93,3l2.83,1.41a43.24,43.24,0,0,0,.1-4.4" data-v-4ca2c3fc=""/>

<path fill="#e0bd00" stroke="#000000" stroke-width="1px"  d="M112.72,341.07s2.71-6.7,2.77-6.78c2-2.61-.06.08-.06.08a59.91,59.91,0,0,0,6,2.74s-2.34,1.78-8.68,4" data-v-4ca2c3fc=""/>

<path fill="#dbdbdb" d="M196.75,313.28s65.06,19.87,59.19-29c0,0-2.13,39.75-59.19,29" />
<path fill="#dbdbdb" d="M305.61,275.67s0,.08,0,.23c.1,2,.14,16.08-16.43,19.69-17.86,3.89-26.13,2-33-4.27,0,0,40.61,10.13,49.38-15.65" data-v-4ca2c3fc=""/>
<path fill="#dbdbdb" d="M226.6,357.71s27.94,4.59,24-15.38c0,0-.38,16.6-24,15.38" />
<path fill="#dbdbdb" d="M251,357.24s27.94,4.59,24-15.38c0,0-.37,16.6-24,15.38" data-v-4ca2c3fc=""/>
<path fill="#dbdbdb" d="M224,373.83s27.94,4.6,24-15.37c0,0-.38,16.59-24,15.37" data-v-4ca2c3fc=""/>
<path fill="#dbdbdb" d="M247.27,372.43s27.94,4.59,24-15.38c0,0-.38,16.59-24,15.38" data-v-4ca2c3fc=""/>
<path fill="#dbdbdb" d="M232.47,340.08s27.94,4.6,24-15.37c0,0-.37,16.59-24,15.37" data-v-4ca2c3fc=""/>
<path fill="#dbdbdb" d="M256.27,337.27s27.93,4.59,24-15.38c0,0-.38,16.6-24,15.38" data-v-4ca2c3fc=""/>
<path fill="#dbdbdb" d="M132.35,247.85s-11.47,12.83-9.29,19.08c0,0,.63-9.67,9.29-19.08" data-v-4ca2c3fc=""/>
<path fill="#dbdbdb" d="M150.65,300.47s-14.59-2-15.52-14.16c0,0,4.41,12.45,15.52,14.16" data-v-4ca2c3fc=""/>
<path fill="#dbdbdb" d="M169.44,300.55s17.5-4.05,23.44-22c0,0-8.51,18.43-23.44,22" data-v-4ca2c3fc=""/>
<path fill="#dbdbdb" d="M100,317.38s-4.9-9.63,1.85-26.76c0,0-5.25,17.84-1.85,26.76" data-v-4ca2c3fc=""/>
<path fill="#dbdbdb" d="M141.1,307.05s-10.35-5.18-15.54-4.87" data-v-4ca2c3fc=""/>
<path fill="#dbdbdb" d="M186,236s-11.49,5.15-12.71,13.64c0,0,7.46-12,12.71-13.64" data-v-4ca2c3fc=""/>
<path fill="#dbdbdb" d="M284.12,225.65s7,4,8.51,15.33c0,0-4.77-12.7-8.51-15.33" data-v-4ca2c3fc=""/>
<path fill="#dbdbdb" d="M319.38,212.55a52.24,52.24,0,0,1,25.17,10s-12.42-8-25.17-10" data-v-4ca2c3fc=""/>
<path fill="#dbdbdb" d="M342.86,207.73a14,14,0,0,0,11.49,9.06s-7.75-2.28-11.49-9.06" data-v-4ca2c3fc=""/>
<path fill="#dbdbdb" d="M360.84,256.54s-16.48,7.93-31.95-5.81c0,0,12.57,10.54,31.95,5.81" data-v-4ca2c3fc=""/>
<path fill="#dbdbdb" d="M298.62,302.48s2.66,10.9-4.39,16.2" data-v-4ca2c3fc=""/>
<path fill="#dbdbdb" d="M211.07,325.44s1.88,11.05,10.46,13.13" data-v-4ca2c3fc=""/>

<path fill="#ffd700" d="M190.43,234s46.5,20.37,64.38,55.5c0,0,15.87-63.75,25.75-65,0,0-9.13-5.25-19-2.5s-65,8.37-71.13,12" data-v-4ca2c3fc=""/>
<path stroke="#000000" stroke-width="1px" d="M190.43,234s46.5,20.37,64.38,55.5c0,0,15.87-63.75,25.75-65,0,0-9.13-5.25-19-2.5S196.56,230.37,190.43,234Z" data-v-4ca2c3fc=""/>
<path stroke="#000000" stroke-width="1px" d="M198.32,231.8s48.61,24.95,54.74,45.32c0,0,3.75-32.25,20.87-55.5" data-v-4ca2c3fc=""/>
<path stroke="#000000" stroke-width="1px" d="M209.17,229.92s34,16.08,40.39,28.08c0,0,5.18-22.13,13.59-36.38" data-v-4ca2c3fc=""/>
<path stroke="#000000" stroke-width="1px" d="M201.3,231.84s41,21.68,50.38,38.56c0,0,6.06-34.17,19.28-49.25" data-v-4ca2c3fc=""/>


<path stroke-width="5px" stroke="#000000" fill="#FFFFFF" d="M208.86,104.33s-21,2.25-30.19,42.37-4.88,66.66,17.43,78.89,40.2,9.24,50.48,7a41.81,41.81,0,0,0,30.52-21.5c10.63-19.63,9.5-45.38-4.5-67s-37.12-44.88-63.74-39.75" data-v-4ca2c3fc=""/>


<path fill="#a94a46" stroke="#000000" stroke-width="1px" d="M207.46,183.45s29.43,6.75,51.94-8.25c0,0,8.13,21.94-14.59,38.07,0,0-21.41,13.79-35.85-6.66,0,0-7.19-9.78-1.5-23.16" data-v-4ca2c3fc=""/>
<path fill="#000000" d="M256.2,149.1c1.51,5.55-1.35,11.17-6.4,12.55s-10.37-2-11.89-7.55,1.35-11.17,6.4-12.55,10.37,2,11.89,7.55" data-v-4ca2c3fc=""/>
<path fill="#FFFFFF" d="M250.24,144.9a3.38,3.38,0,0,1-.34,4.61,3,3,0,0,1-4.37-.73,3.38,3.38,0,0,1,.34-4.61,3,3,0,0,1,4.37.73" data-v-4ca2c3fc=""/>
<path fill="#000000" d="M212.85,156c1,5.66-2.34,11-7.49,11.93s-10.15-2.91-11.17-8.58,2.34-11,7.49-11.93,10.15,2.92,11.17,8.58" data-v-4ca2c3fc=""/>
<path fill="#FFFFFF" d="M207.28,151.26a3.37,3.37,0,0,1-.74,4.56,3,3,0,0,1-4.29-1.11,3.39,3.39,0,0,1,.75-4.57,3,3,0,0,1,4.28,1.12" data-v-4ca2c3fc=""/>


<path fill="#e05568" stroke="#000000" stroke-width="1px" d="M207.36,203.69s9.3-12.52,21.56-4.74c1.6,1,3.89,1.8,14.82-3.35a15.75,15.75,0,0,1,14.52,1.68,35.17,35.17,0,0,1-13.08,16s-10.18,6.56-20,4.52a25.88,25.88,0,0,1-17.87-14.12" data-v-4ca2c3fc=""/>


<path fill="#ffd700" d="M267.33,100.85c-9.16,9.05-7.11,26.29-7.11,26.29-15.21-4.72-69.45,6.75-80.6,16.82,0,0-6.11-16.22-18.48-20.84,10.37,3.46,31.6,11.16,27.84-12.9,0,0,21,20.09,21.5-13.22,16,29.88,25.57,3.4,25.57,3.4,7.85,23.37,23.58,7.63,31.28.45" data-v-4ca2c3fc=""/>

<path stroke="#000000" stroke-width="2px" d="M267.33,100.85c-9.16,9.05-7.11,26.29-7.11,26.29-15.21-4.72-69.45,6.75-80.6,16.82,0,0-6.11-16.22-18.48-20.84,10.37,3.46,31.6,11.16,27.84-12.9,0,0,21,20.09,21.5-13.22,16,29.88,25.57,3.4,25.57,3.4C243.9,123.77,259.63,108,267.33,100.85Z" data-v-4ca2c3fc=""/>i


<path fill="#1c64ec" stroke="#000000" stroke-width="1px" d="M158.85,124.54c3.22,0,3.23-5,0-5s-3.22,5,0,5" />
<path fill="#1c64ec" stroke="#000000" stroke-width="1px" d="M209.46,95.23c3.22,0,3.22-5,0-5s-3.22,5,0,5" />
<path fill="#1c64ec" stroke="#000000" stroke-width="1px" d="M269,101.51c3.22,0,3.22-5,0-5s-3.22,5,0,5" />
<path fill="#1c64ec" stroke="#000000" stroke-width="1px" d="M186.78,109.55c3.22,0,3.22-5,0-5s-3.22,5,0,5" />
<path fill="#1c64ec" stroke="#000000" stroke-width="1px" d="M236.18,99.5c3.22,0,3.22-5,0-5s-3.22,5,0,5" />
<path fill="red" d="M214,112.7c.58,2.32,1.73,7,2.29,9.34l-3.3-3.56Z" />
<polygon fill="red" points="216.34 122.04 214.05 112.69 217.65 117.52 216.34 122.04" />
<path fill="red" d="M193.5,118.43c1.05,2.18,3.15,6.58,4.18,8.76l-4-2.9Z" />
<polygon fill="red" points="197.69 127.19 193.51 118.42 198.05 122.52 197.69 127.19" />
<path fill="red" d="M236.17,112c.17,2.38.49,7.18.63,9.56l-2.63-4Z" />
<polygon fill="red" points="236.81 121.51 236.18 111.95 238.9 117.25 236.81 121.51" />

<path fill="#ffd700" stoke-width="1px" stroke="#000000" d="M331.67,204.13c-.61-.51-1.17-1-1.71-1.6l-3,225.18c0,.06,0,2.88,5.25,3.71,5.22-.83,5.25-3.66,5.25-3.72l-3-221.86A10.9,10.9,0,0,1,331.67,204.13Z" data-v-4ca2c3fc=""/>


<style>

.cls-9[data-v-4ca2c3fc] {
    -webkit-clip-path: url(#clip-path);
    clip-path: url(#clip-path)
}

.cls-13[data-v-4ca2c3fc] {
    -webkit-clip-path: url(#clip-path-3);
    clip-path: url(#clip-path-3)
}
</style></svg>
