<?xml version="1.0" standalone="no"?>
<!DOCTYPE svg PUBLIC "-//W3C//DTD SVG 20010904//EN"
 "http://www.w3.org/TR/2001/REC-SVG-20010904/DTD/svg10.dtd">
<svg version="1.0" xmlns="http://www.w3.org/2000/svg"
 width="980.000000pt" height="982.000000pt" viewBox="0 0 980.000000 982.000000"
 preserveAspectRatio="xMidYMid meet">
<metadata>
Created by potrace 1.15, written by Peter Selinger 2001-2017
</metadata>
<g transform="translate(0.000000,982.000000) scale(0.100000,-0.100000)"
fill="#000000" stroke="none">
<path d="M4385 9799 c-204 -17 -569 -87 -821 -158 -626 -178 -1223 -488 -1759
-915 -180 -143 -546 -506 -688 -681 -464 -572 -798 -1224 -977 -1909 -57 -219
-107 -480 -122 -641 -17 -190 -17 -971 0 -1160 29 -307 131 -733 259 -1079
330 -893 883 -1651 1626 -2229 586 -457 1319 -789 2055 -931 544 -106 1190
-113 1762 -20 831 134 1638 507 2315 1069 214 177 506 475 692 705 413 513
754 1185 917 1810 221 844 206 1841 -39 2645 -378 1242 -1190 2259 -2303 2884
-141 80 -460 233 -612 294 -347 139 -820 264 -1125 296 -272 29 -934 40 -1180
20z m825 -770 c1142 -93 2138 -613 2879 -1502 497 -598 819 -1360 908 -2152
24 -214 24 -744 -1 -945 -85 -701 -367 -1408 -788 -1975 -129 -173 -199 -256
-353 -414 -334 -344 -689 -602 -1120 -816 -371 -183 -692 -292 -1094 -370
-195 -37 -350 -53 -597 -61 -342 -10 -652 14 -938 72 -678 138 -1276 416
-1806 840 -159 128 -451 415 -572 564 -530 651 -833 1357 -935 2180 -25 204
-25 713 0 920 84 679 310 1293 677 1840 691 1030 1821 1703 3045 1814 94 9
188 18 210 20 56 6 336 -3 485 -15z"/>
<path d="M5275 7745 c-38 -8 -113 -36 -165 -61 -178 -88 -324 -267 -350 -429
-14 -88 -12 -221 5 -294 39 -166 167 -321 333 -404 125 -63 212 -81 365 -75
199 7 318 60 467 208 135 134 180 240 180 425 0 189 -48 305 -179 435 -96 96
-178 145 -301 180 -98 28 -261 35 -355 15z"/>
<path d="M4625 5880 c-135 -15 -291 -58 -580 -162 -175 -63 -273 -106 -292
-130 -30 -35 -79 -288 -56 -288 5 0 48 13 96 29 47 16 119 35 160 41 102 17
327 8 390 -15 167 -61 192 -308 76 -770 -17 -66 -82 -307 -145 -535 -203 -731
-230 -867 -221 -1110 6 -152 19 -215 57 -290 127 -250 353 -385 700 -421 197
-20 425 12 685 97 84 28 460 170 472 178 7 6 73 289 69 294 -4 3 -66 -9 -139
-28 -125 -32 -142 -34 -302 -34 -186 0 -235 9 -285 51 -65 55 -92 143 -91 303
0 178 29 309 208 950 192 690 226 853 226 1080 0 128 -3 169 -21 233 -52 190
-178 344 -352 430 -181 89 -410 123 -655 97z"/>
</g>
</svg>
