<svg xmlns="http://www.w3.org/2000/svg" id="pixel-svg" preserveAspectRatio="xMinYMin meet" viewBox="0 0 24 24" style="shape-rendering: crispedges; width:24px;height:24px;" width="24" height="24" ><rect x="0" y="0" fill="#131313" width="1px" height="1px"></rect><rect x="1" y="1" fill="#131313" width="1px" height="1px"></rect><rect x="2" y="2" fill="#131313" width="1px" height="1px"></rect><rect x="3" y="3" fill="#131313" width="1px" height="1px"></rect><rect x="7" y="3" fill="#131313" width="1px" height="1px"></rect><rect x="4" y="4" fill="#131313" width="1px" height="1px"></rect><rect x="5" y="4" fill="#5d5d5d" width="1px" height="1px"></rect><rect x="6" y="4" fill="#131313" width="1px" height="1px"></rect><rect x="7" y="4" fill="#5ac54f" width="1px" height="1px"></rect><rect x="8" y="4" fill="#131313" width="1px" height="1px"></rect><rect x="4" y="5" fill="#5d5d5d" width="1px" height="1px"></rect><rect x="5" y="5" fill="#131313" width="1px" height="1px"></rect><rect x="6" y="5" fill="#5ac54f" width="1px" height="1px"></rect><rect x="7" y="5" fill="#5ac54f" width="1px" height="1px"></rect><rect x="8" y="5" fill="#5ac54f" width="1px" height="1px"></rect><rect x="9" y="5" fill="#131313" width="1px" height="1px"></rect><rect x="4" y="6" fill="#131313" width="1px" height="1px"></rect><rect x="5" y="6" fill="#5ac54f" width="1px" height="1px"></rect><rect x="6" y="6" fill="#5ac54f" width="1px" height="1px"></rect><rect x="7" y="6" fill="#5ac54f" width="1px" height="1px"></rect><rect x="8" y="6" fill="#5ac54f" width="1px" height="1px"></rect><rect x="9" y="6" fill="#5ac54f" width="1px" height="1px"></rect><rect x="10" y="6" fill="#131313" width="1px" height="1px"></rect><rect x="3" y="7" fill="#131313" width="1px" height="1px"></rect><rect x="4" y="7" fill="#5ac54f" width="1px" height="1px"></rect><rect x="5" y="7" fill="#99e65f" width="1px" height="1px"></rect><rect x="6" y="7" fill="#5ac54f" width="1px" height="1px"></rect><rect x="7" y="7" fill="#5ac54f" width="1px" height="1px"></rect><rect x="8" y="7" fill="#5ac54f" width="1px" height="1px"></rect><rect x="9" y="7" fill="#131313" width="1px" height="1px"></rect><rect x="10" y="7" fill="#5ac54f" width="1px" height="1px"></rect><rect x="11" y="7" fill="#131313" width="1px" height="1px"></rect><rect x="4" y="8" fill="#131313" width="1px" height="1px"></rect><rect x="5" y="8" fill="#5ac54f" width="1px" height="1px"></rect><rect x="6" y="8" fill="#99e65f" width="1px" height="1px"></rect><rect x="7" y="8" fill="#5ac54f" width="1px" height="1px"></rect><rect x="8" y="8" fill="#5ac54f" width="1px" height="1px"></rect><rect x="9" y="8" fill="#5ac54f" width="1px" height="1px"></rect><rect x="10" y="8" fill="#5ac54f" width="1px" height="1px"></rect><rect x="11" y="8" fill="#5ac54f" width="1px" height="1px"></rect><rect x="12" y="8" fill="#131313" width="1px" height="1px"></rect><rect x="5" y="9" fill="#131313" width="1px" height="1px"></rect><rect x="6" y="9" fill="#5ac54f" width="1px" height="1px"></rect><rect x="7" y="9" fill="#99e65f" width="1px" height="1px"></rect><rect x="8" y="9" fill="#5ac54f" width="1px" height="1px"></rect><rect x="9" y="9" fill="#5ac54f" width="1px" height="1px"></rect><rect x="10" y="9" fill="#5ac54f" width="1px" height="1px"></rect><rect x="11" y="9" fill="#131313" width="1px" height="1px"></rect><rect x="12" y="9" fill="#5ac54f" width="1px" height="1px"></rect><rect x="13" y="9" fill="#131313" width="1px" height="1px"></rect><rect x="6" y="10" fill="#131313" width="1px" height="1px"></rect><rect x="7" y="10" fill="#5ac54f" width="1px" height="1px"></rect><rect x="8" y="10" fill="#99e65f" width="1px" height="1px"></rect><rect x="9" y="10" fill="#5ac54f" width="1px" height="1px"></rect><rect x="10" y="10" fill="#5ac54f" width="1px" height="1px"></rect><rect x="11" y="10" fill="#5ac54f" width="1px" height="1px"></rect><rect x="12" y="10" fill="#5ac54f" width="1px" height="1px"></rect><rect x="13" y="10" fill="#f9e6cf" width="1px" height="1px"></rect><rect x="14" y="10" fill="#131313" width="1px" height="1px"></rect><rect x="7" y="11" fill="#131313" width="1px" height="1px"></rect><rect x="8" y="11" fill="#5ac54f" width="1px" height="1px"></rect><rect x="9" y="11" fill="#99e65f" width="1px" height="1px"></rect><rect x="10" y="11" fill="#5ac54f" width="1px" height="1px"></rect><rect x="11" y="11" fill="#5ac54f" width="1px" height="1px"></rect><rect x="12" y="11" fill="#f9e6cf" width="1px" height="1px"></rect><rect x="13" y="11" fill="#131313" width="1px" height="1px"></rect><rect x="14" y="11" fill="#f9e6cf" width="1px" height="1px"></rect><rect x="15" y="11" fill="#131313" width="1px" height="1px"></rect><rect x="8" y="12" fill="#131313" width="1px" height="1px"></rect><rect x="9" y="12" fill="#5ac54f" width="1px" height="1px"></rect><rect x="10" y="12" fill="#99e65f" width="1px" height="1px"></rect><rect x="11" y="12" fill="#5ac54f" width="1px" height="1px"></rect><rect x="12" y="12" fill="#f9e6cf" width="1px" height="1px"></rect><rect x="13" y="12" fill="#f9e6cf" width="1px" height="1px"></rect><rect x="14" y="12" fill="#f9e6cf" width="1px" height="1px"></rect><rect x="15" y="12" fill="#f9e6cf" width="1px" height="1px"></rect><rect x="16" y="12" fill="#131313" width="1px" height="1px"></rect><rect x="9" y="13" fill="#131313" width="1px" height="1px"></rect><rect x="10" y="13" fill="#5ac54f" width="1px" height="1px"></rect><rect x="11" y="13" fill="#99e65f" width="1px" height="1px"></rect><rect x="12" y="13" fill="#f9e6cf" width="1px" height="1px"></rect><rect x="13" y="13" fill="#f9e6cf" width="1px" height="1px"></rect><rect x="14" y="13" fill="#f9e6cf" width="1px" height="1px"></rect><rect x="15" y="13" fill="#f9e6cf" width="1px" height="1px"></rect><rect x="16" y="13" fill="#f9e6cf" width="1px" height="1px"></rect><rect x="17" y="13" fill="#131313" width="1px" height="1px"></rect><rect x="19" y="13" fill="#131313" width="1px" height="1px"></rect><rect x="10" y="14" fill="#131313" width="1px" height="1px"></rect><rect x="11" y="14" fill="#f9e6cf" width="1px" height="1px"></rect><rect x="12" y="14" fill="#ffffff" width="1px" height="1px"></rect><rect x="13" y="14" fill="#f9e6cf" width="1px" height="1px"></rect><rect x="14" y="14" fill="#f9e6cf" width="1px" height="1px"></rect><rect x="15" y="14" fill="#f9e6cf" width="1px" height="1px"></rect><rect x="16" y="14" fill="#f9e6cf" width="1px" height="1px"></rect><rect x="17" y="14" fill="#f9e6cf" width="1px" height="1px"></rect><rect x="18" y="14" fill="#131313" width="1px" height="1px"></rect><rect x="11" y="15" fill="#131313" width="1px" height="1px"></rect><rect x="12" y="15" fill="#f9e6cf" width="1px" height="1px"></rect><rect x="13" y="15" fill="#ffffff" width="1px" height="1px"></rect><rect x="14" y="15" fill="#f9e6cf" width="1px" height="1px"></rect><rect x="15" y="15" fill="#f9e6cf" width="1px" height="1px"></rect><rect x="16" y="15" fill="#f9e6cf" width="1px" height="1px"></rect><rect x="17" y="15" fill="#131313" width="1px" height="1px"></rect><rect x="12" y="16" fill="#131313" width="1px" height="1px"></rect><rect x="13" y="16" fill="#f9e6cf" width="1px" height="1px"></rect><rect x="14" y="16" fill="#ffffff" width="1px" height="1px"></rect><rect x="15" y="16" fill="#f9e6cf" width="1px" height="1px"></rect><rect x="16" y="16" fill="#131313" width="1px" height="1px"></rect><rect x="17" y="16" fill="#ffffff" width="1px" height="1px"></rect><rect x="18" y="16" fill="#131313" width="1px" height="1px"></rect><rect x="22" y="16" fill="#131313" width="1px" height="1px"></rect><rect x="13" y="17" fill="#131313" width="1px" height="1px"></rect><rect x="14" y="17" fill="#f9e6cf" width="1px" height="1px"></rect><rect x="15" y="17" fill="#131313" width="1px" height="1px"></rect><rect x="16" y="17" fill="#ffffff" width="1px" height="1px"></rect><rect x="17" y="17" fill="#ffffff" width="1px" height="1px"></rect><rect x="18" y="17" fill="#ffffff" width="1px" height="1px"></rect><rect x="19" y="17" fill="#131313" width="1px" height="1px"></rect><rect x="21" y="17" fill="#131313" width="1px" height="1px"></rect><rect x="22" y="17" fill="#ffffff" width="1px" height="1px"></rect><rect x="23" y="17" fill="#131313" width="1px" height="1px"></rect><rect x="14" y="18" fill="#131313" width="1px" height="1px"></rect><rect x="16" y="18" fill="#131313" width="1px" height="1px"></rect><rect x="17" y="18" fill="#ffffff" width="1px" height="1px"></rect><rect x="18" y="18" fill="#ffffff" width="1px" height="1px"></rect><rect x="19" y="18" fill="#ffffff" width="1px" height="1px"></rect><rect x="20" y="18" fill="#131313" width="1px" height="1px"></rect><rect x="21" y="18" fill="#ffffff" width="1px" height="1px"></rect><rect x="22" y="18" fill="#131313" width="1px" height="1px"></rect><rect x="13" y="19" fill="#131313" width="1px" height="1px"></rect><rect x="17" y="19" fill="#131313" width="1px" height="1px"></rect><rect x="18" y="19" fill="#ffffff" width="1px" height="1px"></rect><rect x="19" y="19" fill="#131313" width="1px" height="1px"></rect><rect x="20" y="19" fill="#ffffff" width="1px" height="1px"></rect><rect x="21" y="19" fill="#131313" width="1px" height="1px"></rect><rect x="18" y="20" fill="#131313" width="1px" height="1px"></rect><rect x="19" y="20" fill="#ffffff" width="1px" height="1px"></rect><rect x="20" y="20" fill="#131313" width="1px" height="1px"></rect><rect x="17" y="21" fill="#131313" width="1px" height="1px"></rect><rect x="18" y="21" fill="#ffffff" width="1px" height="1px"></rect><rect x="19" y="21" fill="#131313" width="1px" height="1px"></rect><rect x="16" y="22" fill="#131313" width="1px" height="1px"></rect><rect x="17" y="22" fill="#ffffff" width="1px" height="1px"></rect><rect x="18" y="22" fill="#131313" width="1px" height="1px"></rect><rect x="17" y="23" fill="#131313" width="1px" height="1px"></rect></svg>
