<svg xmlns="http://www.w3.org/2000/svg" id="pixel-svg" preserveAspectRatio="xMinYMin meet" viewBox="0 0 24 24" style="shape-rendering: crispedges;"><rect x="8" y="3" fill="#0098dc" width="1px" height="1px"></rect><rect x="9" y="3" fill="#0098dc" width="1px" height="1px"></rect><rect x="10" y="3" fill="#0098dc" width="1px" height="1px"></rect><rect x="11" y="3" fill="#0098dc" width="1px" height="1px"></rect><rect x="8" y="4" fill="#0098dc" width="1px" height="1px"></rect><rect x="9" y="4" fill="#131313" width="1px" height="1px"></rect><rect x="10" y="4" fill="#131313" width="1px" height="1px"></rect><rect x="11" y="4" fill="#0098dc" width="1px" height="1px"></rect><rect x="8" y="5" fill="#0098dc" width="1px" height="1px"></rect><rect x="9" y="5" fill="#131313" width="1px" height="1px"></rect><rect x="10" y="5" fill="#131313" width="1px" height="1px"></rect><rect x="11" y="5" fill="#0098dc" width="1px" height="1px"></rect><rect x="12" y="5" fill="#0098dc" width="1px" height="1px"></rect><rect x="13" y="5" fill="#0098dc" width="1px" height="1px"></rect><rect x="8" y="6" fill="#0098dc" width="1px" height="1px"></rect><rect x="9" y="6" fill="#131313" width="1px" height="1px"></rect><rect x="10" y="6" fill="#131313" width="1px" height="1px"></rect><rect x="11" y="6" fill="#131313" width="1px" height="1px"></rect><rect x="12" y="6" fill="#131313" width="1px" height="1px"></rect><rect x="13" y="6" fill="#0098dc" width="1px" height="1px"></rect><rect x="8" y="7" fill="#0098dc" width="1px" height="1px"></rect><rect x="9" y="7" fill="#131313" width="1px" height="1px"></rect><rect x="10" y="7" fill="#131313" width="1px" height="1px"></rect><rect x="11" y="7" fill="#131313" width="1px" height="1px"></rect><rect x="12" y="7" fill="#131313" width="1px" height="1px"></rect><rect x="13" y="7" fill="#0098dc" width="1px" height="1px"></rect><rect x="14" y="7" fill="#0098dc" width="1px" height="1px"></rect><rect x="15" y="7" fill="#0098dc" width="1px" height="1px"></rect><rect x="8" y="8" fill="#0098dc" width="1px" height="1px"></rect><rect x="9" y="8" fill="#131313" width="1px" height="1px"></rect><rect x="10" y="8" fill="#131313" width="1px" height="1px"></rect><rect x="11" y="8" fill="#131313" width="1px" height="1px"></rect><rect x="12" y="8" fill="#131313" width="1px" height="1px"></rect><rect x="13" y="8" fill="#131313" width="1px" height="1px"></rect><rect x="14" y="8" fill="#131313" width="1px" height="1px"></rect><rect x="15" y="8" fill="#0098dc" width="1px" height="1px"></rect><rect x="8" y="9" fill="#0098dc" width="1px" height="1px"></rect><rect x="9" y="9" fill="#131313" width="1px" height="1px"></rect><rect x="10" y="9" fill="#131313" width="1px" height="1px"></rect><rect x="11" y="9" fill="#131313" width="1px" height="1px"></rect><rect x="12" y="9" fill="#131313" width="1px" height="1px"></rect><rect x="13" y="9" fill="#131313" width="1px" height="1px"></rect><rect x="14" y="9" fill="#131313" width="1px" height="1px"></rect><rect x="15" y="9" fill="#0098dc" width="1px" height="1px"></rect><rect x="16" y="9" fill="#0098dc" width="1px" height="1px"></rect><rect x="17" y="9" fill="#0098dc" width="1px" height="1px"></rect><rect x="8" y="10" fill="#0098dc" width="1px" height="1px"></rect><rect x="9" y="10" fill="#131313" width="1px" height="1px"></rect><rect x="10" y="10" fill="#131313" width="1px" height="1px"></rect><rect x="11" y="10" fill="#131313" width="1px" height="1px"></rect><rect x="12" y="10" fill="#131313" width="1px" height="1px"></rect><rect x="13" y="10" fill="#131313" width="1px" height="1px"></rect><rect x="14" y="10" fill="#131313" width="1px" height="1px"></rect><rect x="15" y="10" fill="#131313" width="1px" height="1px"></rect><rect x="16" y="10" fill="#131313" width="1px" height="1px"></rect><rect x="17" y="10" fill="#0098dc" width="1px" height="1px"></rect><rect x="18" y="10" fill="#0098dc" width="1px" height="1px"></rect><rect x="19" y="10" fill="#0098dc" width="1px" height="1px"></rect><rect x="8" y="11" fill="#0098dc" width="1px" height="1px"></rect><rect x="9" y="11" fill="#131313" width="1px" height="1px"></rect><rect x="10" y="11" fill="#131313" width="1px" height="1px"></rect><rect x="11" y="11" fill="#131313" width="1px" height="1px"></rect><rect x="12" y="11" fill="#131313" width="1px" height="1px"></rect><rect x="13" y="11" fill="#131313" width="1px" height="1px"></rect><rect x="14" y="11" fill="#131313" width="1px" height="1px"></rect><rect x="15" y="11" fill="#131313" width="1px" height="1px"></rect><rect x="16" y="11" fill="#131313" width="1px" height="1px"></rect><rect x="17" y="11" fill="#131313" width="1px" height="1px"></rect><rect x="18" y="11" fill="#131313" width="1px" height="1px"></rect><rect x="19" y="11" fill="#0098dc" width="1px" height="1px"></rect><rect x="8" y="12" fill="#0098dc" width="1px" height="1px"></rect><rect x="9" y="12" fill="#131313" width="1px" height="1px"></rect><rect x="10" y="12" fill="#131313" width="1px" height="1px"></rect><rect x="11" y="12" fill="#131313" width="1px" height="1px"></rect><rect x="12" y="12" fill="#131313" width="1px" height="1px"></rect><rect x="13" y="12" fill="#131313" width="1px" height="1px"></rect><rect x="14" y="12" fill="#131313" width="1px" height="1px"></rect><rect x="15" y="12" fill="#131313" width="1px" height="1px"></rect><rect x="16" y="12" fill="#131313" width="1px" height="1px"></rect><rect x="17" y="12" fill="#131313" width="1px" height="1px"></rect><rect x="18" y="12" fill="#131313" width="1px" height="1px"></rect><rect x="19" y="12" fill="#0098dc" width="1px" height="1px"></rect><rect x="8" y="13" fill="#0098dc" width="1px" height="1px"></rect><rect x="9" y="13" fill="#131313" width="1px" height="1px"></rect><rect x="10" y="13" fill="#131313" width="1px" height="1px"></rect><rect x="11" y="13" fill="#131313" width="1px" height="1px"></rect><rect x="12" y="13" fill="#131313" width="1px" height="1px"></rect><rect x="13" y="13" fill="#131313" width="1px" height="1px"></rect><rect x="14" y="13" fill="#131313" width="1px" height="1px"></rect><rect x="15" y="13" fill="#131313" width="1px" height="1px"></rect><rect x="16" y="13" fill="#131313" width="1px" height="1px"></rect><rect x="17" y="13" fill="#0098dc" width="1px" height="1px"></rect><rect x="18" y="13" fill="#0098dc" width="1px" height="1px"></rect><rect x="19" y="13" fill="#0098dc" width="1px" height="1px"></rect><rect x="8" y="14" fill="#0098dc" width="1px" height="1px"></rect><rect x="9" y="14" fill="#131313" width="1px" height="1px"></rect><rect x="10" y="14" fill="#131313" width="1px" height="1px"></rect><rect x="11" y="14" fill="#131313" width="1px" height="1px"></rect><rect x="12" y="14" fill="#131313" width="1px" height="1px"></rect><rect x="13" y="14" fill="#131313" width="1px" height="1px"></rect><rect x="14" y="14" fill="#131313" width="1px" height="1px"></rect><rect x="15" y="14" fill="#0098dc" width="1px" height="1px"></rect><rect x="16" y="14" fill="#0098dc" width="1px" height="1px"></rect><rect x="17" y="14" fill="#0098dc" width="1px" height="1px"></rect><rect x="8" y="15" fill="#0098dc" width="1px" height="1px"></rect><rect x="9" y="15" fill="#131313" width="1px" height="1px"></rect><rect x="10" y="15" fill="#131313" width="1px" height="1px"></rect><rect x="11" y="15" fill="#131313" width="1px" height="1px"></rect><rect x="12" y="15" fill="#131313" width="1px" height="1px"></rect><rect x="13" y="15" fill="#131313" width="1px" height="1px"></rect><rect x="14" y="15" fill="#131313" width="1px" height="1px"></rect><rect x="15" y="15" fill="#0098dc" width="1px" height="1px"></rect><rect x="8" y="16" fill="#0098dc" width="1px" height="1px"></rect><rect x="9" y="16" fill="#131313" width="1px" height="1px"></rect><rect x="10" y="16" fill="#131313" width="1px" height="1px"></rect><rect x="11" y="16" fill="#131313" width="1px" height="1px"></rect><rect x="12" y="16" fill="#131313" width="1px" height="1px"></rect><rect x="13" y="16" fill="#0098dc" width="1px" height="1px"></rect><rect x="14" y="16" fill="#0098dc" width="1px" height="1px"></rect><rect x="15" y="16" fill="#0098dc" width="1px" height="1px"></rect><rect x="8" y="17" fill="#0098dc" width="1px" height="1px"></rect><rect x="9" y="17" fill="#131313" width="1px" height="1px"></rect><rect x="10" y="17" fill="#131313" width="1px" height="1px"></rect><rect x="11" y="17" fill="#131313" width="1px" height="1px"></rect><rect x="12" y="17" fill="#131313" width="1px" height="1px"></rect><rect x="13" y="17" fill="#0098dc" width="1px" height="1px"></rect><rect x="8" y="18" fill="#0098dc" width="1px" height="1px"></rect><rect x="9" y="18" fill="#131313" width="1px" height="1px"></rect><rect x="10" y="18" fill="#131313" width="1px" height="1px"></rect><rect x="11" y="18" fill="#0098dc" width="1px" height="1px"></rect><rect x="12" y="18" fill="#0098dc" width="1px" height="1px"></rect><rect x="13" y="18" fill="#0098dc" width="1px" height="1px"></rect><rect x="8" y="19" fill="#0098dc" width="1px" height="1px"></rect><rect x="9" y="19" fill="#131313" width="1px" height="1px"></rect><rect x="10" y="19" fill="#131313" width="1px" height="1px"></rect><rect x="11" y="19" fill="#0098dc" width="1px" height="1px"></rect><rect x="8" y="20" fill="#0098dc" width="1px" height="1px"></rect><rect x="9" y="20" fill="#0098dc" width="1px" height="1px"></rect><rect x="10" y="20" fill="#0098dc" width="1px" height="1px"></rect><rect x="11" y="20" fill="#0098dc" width="1px" height="1px"></rect></svg>
