<svg xmlns="http://www.w3.org/2000/svg" id="pixel-svg" preserveAspectRatio="xMinYMin meet" viewBox="0 0 24 24" style="shape-rendering: crispedges;" width="44" height="44" ><rect x="16" y="0" fill="#858585" width="1px" height="1px"></rect><rect x="17" y="0" fill="#858585" width="1px" height="1px"></rect><rect x="18" y="0" fill="#858585" width="1px" height="1px"></rect><rect x="19" y="0" fill="#858585" width="1px" height="1px"></rect><rect x="14" y="1" fill="#858585" width="1px" height="1px"></rect><rect x="15" y="1" fill="#b4b4b4" width="1px" height="1px"></rect><rect x="16" y="1" fill="#ffffff" width="1px" height="1px"></rect><rect x="17" y="1" fill="#ffffff" width="1px" height="1px"></rect><rect x="18" y="1" fill="#ffffff" width="1px" height="1px"></rect><rect x="19" y="1" fill="#ffffff" width="1px" height="1px"></rect><rect x="20" y="1" fill="#858585" width="1px" height="1px"></rect><rect x="21" y="1" fill="#858585" width="1px" height="1px"></rect><rect x="13" y="2" fill="#858585" width="1px" height="1px"></rect><rect x="14" y="2" fill="#ffffff" width="1px" height="1px"></rect><rect x="15" y="2" fill="#ffffff" width="1px" height="1px"></rect><rect x="16" y="2" fill="#ffffff" width="1px" height="1px"></rect><rect x="17" y="2" fill="#ffffff" width="1px" height="1px"></rect><rect x="18" y="2" fill="#ffffff" width="1px" height="1px"></rect><rect x="19" y="2" fill="#ffffff" width="1px" height="1px"></rect><rect x="20" y="2" fill="#ffffff" width="1px" height="1px"></rect><rect x="21" y="2" fill="#ffffff" width="1px" height="1px"></rect><rect x="22" y="2" fill="#858585" width="1px" height="1px"></rect><rect x="13" y="3" fill="#858585" width="1px" height="1px"></rect><rect x="14" y="3" fill="#ffffff" width="1px" height="1px"></rect><rect x="15" y="3" fill="#ffffff" width="1px" height="1px"></rect><rect x="16" y="3" fill="#ffffff" width="1px" height="1px"></rect><rect x="17" y="3" fill="#ffffff" width="1px" height="1px"></rect><rect x="18" y="3" fill="#ffffff" width="1px" height="1px"></rect><rect x="19" y="3" fill="#ffffff" width="1px" height="1px"></rect><rect x="20" y="3" fill="#ffffff" width="1px" height="1px"></rect><rect x="21" y="3" fill="#ffffff" width="1px" height="1px"></rect><rect x="22" y="3" fill="#858585" width="1px" height="1px"></rect><rect x="11" y="4" fill="#131313" width="1px" height="1px"></rect><rect x="12" y="4" fill="#131313" width="1px" height="1px"></rect><rect x="13" y="4" fill="#131313" width="1px" height="1px"></rect><rect x="14" y="4" fill="#131313" width="1px" height="1px"></rect><rect x="15" y="4" fill="#131313" width="1px" height="1px"></rect><rect x="16" y="4" fill="#131313" width="1px" height="1px"></rect><rect x="17" y="4" fill="#131313" width="1px" height="1px"></rect><rect x="18" y="4" fill="#131313" width="1px" height="1px"></rect><rect x="19" y="4" fill="#131313" width="1px" height="1px"></rect><rect x="20" y="4" fill="#131313" width="1px" height="1px"></rect><rect x="21" y="4" fill="#131313" width="1px" height="1px"></rect><rect x="22" y="4" fill="#131313" width="1px" height="1px"></rect><rect x="23" y="4" fill="#131313" width="1px" height="1px"></rect><rect x="12" y="5" fill="#131313" width="1px" height="1px"></rect><rect x="13" y="5" fill="#ffffff" width="1px" height="1px"></rect><rect x="14" y="5" fill="#131313" width="1px" height="1px"></rect><rect x="15" y="5" fill="#131313" width="1px" height="1px"></rect><rect x="16" y="5" fill="#131313" width="1px" height="1px"></rect><rect x="17" y="5" fill="#131313" width="1px" height="1px"></rect><rect x="18" y="5" fill="#131313" width="1px" height="1px"></rect><rect x="19" y="5" fill="#ffffff" width="1px" height="1px"></rect><rect x="20" y="5" fill="#131313" width="1px" height="1px"></rect><rect x="21" y="5" fill="#131313" width="1px" height="1px"></rect><rect x="22" y="5" fill="#131313" width="1px" height="1px"></rect><rect x="23" y="5" fill="#858585" width="1px" height="1px"></rect><rect x="12" y="6" fill="#131313" width="1px" height="1px"></rect><rect x="13" y="6" fill="#131313" width="1px" height="1px"></rect><rect x="14" y="6" fill="#ffffff" width="1px" height="1px"></rect><rect x="15" y="6" fill="#131313" width="1px" height="1px"></rect><rect x="16" y="6" fill="#131313" width="1px" height="1px"></rect><rect x="17" y="6" fill="#ffffff" width="1px" height="1px"></rect><rect x="18" y="6" fill="#131313" width="1px" height="1px"></rect><rect x="19" y="6" fill="#131313" width="1px" height="1px"></rect><rect x="20" y="6" fill="#ffffff" width="1px" height="1px"></rect><rect x="21" y="6" fill="#131313" width="1px" height="1px"></rect><rect x="22" y="6" fill="#131313" width="1px" height="1px"></rect><rect x="23" y="6" fill="#858585" width="1px" height="1px"></rect><rect x="12" y="7" fill="#858585" width="1px" height="1px"></rect><rect x="13" y="7" fill="#131313" width="1px" height="1px"></rect><rect x="14" y="7" fill="#131313" width="1px" height="1px"></rect><rect x="15" y="7" fill="#131313" width="1px" height="1px"></rect><rect x="16" y="7" fill="#ffffff" width="1px" height="1px"></rect><rect x="17" y="7" fill="#ffffff" width="1px" height="1px"></rect><rect x="18" y="7" fill="#ffffff" width="1px" height="1px"></rect><rect x="19" y="7" fill="#131313" width="1px" height="1px"></rect><rect x="20" y="7" fill="#131313" width="1px" height="1px"></rect><rect x="21" y="7" fill="#131313" width="1px" height="1px"></rect><rect x="22" y="7" fill="#ffffff" width="1px" height="1px"></rect><rect x="23" y="7" fill="#858585" width="1px" height="1px"></rect><rect x="12" y="8" fill="#858585" width="1px" height="1px"></rect><rect x="13" y="8" fill="#ffffff" width="1px" height="1px"></rect><rect x="14" y="8" fill="#ffffff" width="1px" height="1px"></rect><rect x="15" y="8" fill="#ffffff" width="1px" height="1px"></rect><rect x="16" y="8" fill="#ffffff" width="1px" height="1px"></rect><rect x="17" y="8" fill="#ffffff" width="1px" height="1px"></rect><rect x="18" y="8" fill="#ffffff" width="1px" height="1px"></rect><rect x="19" y="8" fill="#ffffff" width="1px" height="1px"></rect><rect x="20" y="8" fill="#ffffff" width="1px" height="1px"></rect><rect x="21" y="8" fill="#ffffff" width="1px" height="1px"></rect><rect x="22" y="8" fill="#ffffff" width="1px" height="1px"></rect><rect x="23" y="8" fill="#b4b4b4" width="1px" height="1px"></rect><rect x="12" y="9" fill="#858585" width="1px" height="1px"></rect><rect x="13" y="9" fill="#ffffff" width="1px" height="1px"></rect><rect x="14" y="9" fill="#ffffff" width="1px" height="1px"></rect><rect x="15" y="9" fill="#ffffff" width="1px" height="1px"></rect><rect x="16" y="9" fill="#ffffff" width="1px" height="1px"></rect><rect x="17" y="9" fill="#ffffff" width="1px" height="1px"></rect><rect x="18" y="9" fill="#ffffff" width="1px" height="1px"></rect><rect x="19" y="9" fill="#ffffff" width="1px" height="1px"></rect><rect x="20" y="9" fill="#ffffff" width="1px" height="1px"></rect><rect x="21" y="9" fill="#ffffff" width="1px" height="1px"></rect><rect x="22" y="9" fill="#ffffff" width="1px" height="1px"></rect><rect x="23" y="9" fill="#858585" width="1px" height="1px"></rect><rect x="13" y="10" fill="#858585" width="1px" height="1px"></rect><rect x="14" y="10" fill="#ffffff" width="1px" height="1px"></rect><rect x="15" y="10" fill="#858585" width="1px" height="1px"></rect><rect x="16" y="10" fill="#ffffff" width="1px" height="1px"></rect><rect x="17" y="10" fill="#ffffff" width="1px" height="1px"></rect><rect x="18" y="10" fill="#ffffff" width="1px" height="1px"></rect><rect x="19" y="10" fill="#ffffff" width="1px" height="1px"></rect><rect x="20" y="10" fill="#858585" width="1px" height="1px"></rect><rect x="21" y="10" fill="#ffffff" width="1px" height="1px"></rect><rect x="22" y="10" fill="#858585" width="1px" height="1px"></rect><rect x="13" y="11" fill="#858585" width="1px" height="1px"></rect><rect x="14" y="11" fill="#ffffff" width="1px" height="1px"></rect><rect x="15" y="11" fill="#ffffff" width="1px" height="1px"></rect><rect x="16" y="11" fill="#858585" width="1px" height="1px"></rect><rect x="17" y="11" fill="#858585" width="1px" height="1px"></rect><rect x="18" y="11" fill="#858585" width="1px" height="1px"></rect><rect x="19" y="11" fill="#858585" width="1px" height="1px"></rect><rect x="20" y="11" fill="#ffffff" width="1px" height="1px"></rect><rect x="21" y="11" fill="#ffffff" width="1px" height="1px"></rect><rect x="22" y="11" fill="#858585" width="1px" height="1px"></rect><rect x="14" y="12" fill="#858585" width="1px" height="1px"></rect><rect x="15" y="12" fill="#858585" width="1px" height="1px"></rect><rect x="16" y="12" fill="#ffffff" width="1px" height="1px"></rect><rect x="17" y="12" fill="#ffffff" width="1px" height="1px"></rect><rect x="18" y="12" fill="#ffffff" width="1px" height="1px"></rect><rect x="19" y="12" fill="#ffffff" width="1px" height="1px"></rect><rect x="20" y="12" fill="#ffffff" width="1px" height="1px"></rect><rect x="21" y="12" fill="#858585" width="1px" height="1px"></rect><rect x="16" y="13" fill="#858585" width="1px" height="1px"></rect><rect x="17" y="13" fill="#ffffff" width="1px" height="1px"></rect><rect x="18" y="13" fill="#ffffff" width="1px" height="1px"></rect><rect x="19" y="13" fill="#b4b4b4" width="1px" height="1px"></rect><rect x="20" y="13" fill="#858585" width="1px" height="1px"></rect><rect x="16" y="14" fill="#858585" width="1px" height="1px"></rect><rect x="17" y="14" fill="#b4b4b4" width="1px" height="1px"></rect><rect x="18" y="14" fill="#ffffff" width="1px" height="1px"></rect><rect x="19" y="14" fill="#ffffff" width="1px" height="1px"></rect><rect x="20" y="14" fill="#858585" width="1px" height="1px"></rect><rect x="16" y="15" fill="#858585" width="1px" height="1px"></rect><rect x="17" y="15" fill="#ffffff" width="1px" height="1px"></rect><rect x="18" y="15" fill="#ffffff" width="1px" height="1px"></rect><rect x="19" y="15" fill="#ffffff" width="1px" height="1px"></rect><rect x="20" y="15" fill="#858585" width="1px" height="1px"></rect><rect x="16" y="16" fill="#858585" width="1px" height="1px"></rect><rect x="17" y="16" fill="#ffffff" width="1px" height="1px"></rect><rect x="18" y="16" fill="#ffffff" width="1px" height="1px"></rect><rect x="19" y="16" fill="#858585" width="1px" height="1px"></rect><rect x="1" y="17" fill="#ffffff" width="1px" height="1px"></rect><rect x="2" y="17" fill="#ffffff" width="1px" height="1px"></rect><rect x="10" y="17" fill="#858585" width="1px" height="1px"></rect><rect x="11" y="17" fill="#858585" width="1px" height="1px"></rect><rect x="12" y="17" fill="#858585" width="1px" height="1px"></rect><rect x="15" y="17" fill="#858585" width="1px" height="1px"></rect><rect x="16" y="17" fill="#ffffff" width="1px" height="1px"></rect><rect x="17" y="17" fill="#ffffff" width="1px" height="1px"></rect><rect x="18" y="17" fill="#ffffff" width="1px" height="1px"></rect><rect x="19" y="17" fill="#858585" width="1px" height="1px"></rect><rect x="0" y="18" fill="#858585" width="1px" height="1px"></rect><rect x="1" y="18" fill="#858585" width="1px" height="1px"></rect><rect x="2" y="18" fill="#ffffff" width="1px" height="1px"></rect><rect x="3" y="18" fill="#b4b4b4" width="1px" height="1px"></rect><rect x="8" y="18" fill="#858585" width="1px" height="1px"></rect><rect x="9" y="18" fill="#858585" width="1px" height="1px"></rect><rect x="10" y="18" fill="#ffffff" width="1px" height="1px"></rect><rect x="11" y="18" fill="#ffffff" width="1px" height="1px"></rect><rect x="12" y="18" fill="#ffffff" width="1px" height="1px"></rect><rect x="13" y="18" fill="#858585" width="1px" height="1px"></rect><rect x="14" y="18" fill="#858585" width="1px" height="1px"></rect><rect x="15" y="18" fill="#ffffff" width="1px" height="1px"></rect><rect x="16" y="18" fill="#ffffff" width="1px" height="1px"></rect><rect x="17" y="18" fill="#ffffff" width="1px" height="1px"></rect><rect x="18" y="18" fill="#ffffff" width="1px" height="1px"></rect><rect x="19" y="18" fill="#858585" width="1px" height="1px"></rect><rect x="2" y="19" fill="#858585" width="1px" height="1px"></rect><rect x="3" y="19" fill="#ffffff" width="1px" height="1px"></rect><rect x="4" y="19" fill="#858585" width="1px" height="1px"></rect><rect x="7" y="19" fill="#858585" width="1px" height="1px"></rect><rect x="8" y="19" fill="#ffffff" width="1px" height="1px"></rect><rect x="9" y="19" fill="#ffffff" width="1px" height="1px"></rect><rect x="10" y="19" fill="#ffffff" width="1px" height="1px"></rect><rect x="11" y="19" fill="#ffffff" width="1px" height="1px"></rect><rect x="12" y="19" fill="#ffffff" width="1px" height="1px"></rect><rect x="13" y="19" fill="#ffffff" width="1px" height="1px"></rect><rect x="14" y="19" fill="#ffffff" width="1px" height="1px"></rect><rect x="15" y="19" fill="#ffffff" width="1px" height="1px"></rect><rect x="16" y="19" fill="#ffffff" width="1px" height="1px"></rect><rect x="17" y="19" fill="#ffffff" width="1px" height="1px"></rect><rect x="18" y="19" fill="#858585" width="1px" height="1px"></rect><rect x="2" y="20" fill="#858585" width="1px" height="1px"></rect><rect x="3" y="20" fill="#ffffff" width="1px" height="1px"></rect><rect x="4" y="20" fill="#ffffff" width="1px" height="1px"></rect><rect x="5" y="20" fill="#858585" width="1px" height="1px"></rect><rect x="7" y="20" fill="#858585" width="1px" height="1px"></rect><rect x="8" y="20" fill="#ffffff" width="1px" height="1px"></rect><rect x="9" y="20" fill="#ffffff" width="1px" height="1px"></rect><rect x="10" y="20" fill="#858585" width="1px" height="1px"></rect><rect x="11" y="20" fill="#858585" width="1px" height="1px"></rect><rect x="12" y="20" fill="#ffffff" width="1px" height="1px"></rect><rect x="13" y="20" fill="#ffffff" width="1px" height="1px"></rect><rect x="14" y="20" fill="#ffffff" width="1px" height="1px"></rect><rect x="15" y="20" fill="#ffffff" width="1px" height="1px"></rect><rect x="16" y="20" fill="#ffffff" width="1px" height="1px"></rect><rect x="17" y="20" fill="#858585" width="1px" height="1px"></rect><rect x="3" y="21" fill="#858585" width="1px" height="1px"></rect><rect x="4" y="21" fill="#ffffff" width="1px" height="1px"></rect><rect x="5" y="21" fill="#ffffff" width="1px" height="1px"></rect><rect x="6" y="21" fill="#858585" width="1px" height="1px"></rect><rect x="7" y="21" fill="#ffffff" width="1px" height="1px"></rect><rect x="8" y="21" fill="#ffffff" width="1px" height="1px"></rect><rect x="9" y="21" fill="#858585" width="1px" height="1px"></rect><rect x="12" y="21" fill="#858585" width="1px" height="1px"></rect><rect x="13" y="21" fill="#ffffff" width="1px" height="1px"></rect><rect x="14" y="21" fill="#ffffff" width="1px" height="1px"></rect><rect x="15" y="21" fill="#858585" width="1px" height="1px"></rect><rect x="16" y="21" fill="#858585" width="1px" height="1px"></rect><rect x="4" y="22" fill="#858585" width="1px" height="1px"></rect><rect x="5" y="22" fill="#ffffff" width="1px" height="1px"></rect><rect x="6" y="22" fill="#ffffff" width="1px" height="1px"></rect><rect x="7" y="22" fill="#ffffff" width="1px" height="1px"></rect><rect x="8" y="22" fill="#858585" width="1px" height="1px"></rect><rect x="13" y="22" fill="#858585" width="1px" height="1px"></rect><rect x="14" y="22" fill="#858585" width="1px" height="1px"></rect><rect x="5" y="23" fill="#858585" width="1px" height="1px"></rect><rect x="6" y="23" fill="#858585" width="1px" height="1px"></rect><rect x="7" y="23" fill="#858585" width="1px" height="1px"></rect></svg>
